<svg xmlns="http://www.w3.org/2000/svg" xml:space="preserve" viewBox="0 0 60 60">
  <path fill="#d97e9f" d="M55.4188 14.0459c-4.5426 7.1306-8.9973 13.8546-12.9581 20.8578-2.8353 5.013-5.4125 10.2565-7.339 15.6698-1.336 3.7532-3.0793 4.9436-7.085 5.6416-9.818 1.7106-13.407-5.4702-17.9625-11.3032-1.8116-2.3195-3.282-5.215-3.8742-8.0631-.3633-1.7475.7921-5.1896 2.0374-5.616 2.9193-.9993 5.9083-.7276 8.8118.1024 2.414.69 5.1489 5.7384 7.1424 7.534 5.067-8.5898 10.2143-19.8354 15.209-28.3 2.2035-3.7342 11.987-6.8997 15.092-4.057 1.4253 1.305.878 4.7642.9262 7.5337z"/>
</svg>
