<!-- Generated by IcoMoon.io -->
<svg version="1.1" xmlns="http://www.w3.org/2000/svg" width="32" height="32" viewBox="0 0 32 32">
<path fill="#6f9abf" d="M13.756 23.408c-0.014-0.184-0.038-0.369-0.040-0.553-0.006-0.615 0.107-1.213 0.253-1.808 0.124-0.507 0.319-0.997 0.607-1.416 0.368-0.536 0.791-1.045 1.369-1.391 0.745-0.446 1.485-0.902 2.222-1.362 0.634-0.395 1.258-0.799 1.816-1.306 0.588-0.535 1.020-1.164 1.377-1.866 0.183-0.359 0.253-0.738 0.369-1.111 0.168-0.54 0.191-1.081 0.16-1.625-0.048-0.819-0.249-1.603-0.654-2.327-0.257-0.46-0.6-0.843-0.97-1.218-0.351-0.356-0.747-0.65-1.165-0.892-0.437-0.253-0.935-0.419-1.424-0.56-0.449-0.13-0.92-0.192-1.386-0.251-0.273-0.035-0.556-0.029-0.831-0-0.302 0.031-0.603 0.099-0.899 0.169-0.354 0.084-0.715 0.157-1.052 0.289-0.474 0.185-0.95 0.379-1.322 0.756-0.107 0.109-0.278 0.157-0.384 0.266-0.354 0.365-0.738 0.714-1.026 1.128-0.406 0.584-0.658 1.254-0.807 1.954-0.058 0.272-0.063 0.559-0.146 0.823-0.178 0.567-0.585 0.915-1.146 1.102-0.496 0.165-0.992 0.148-1.474-0.017-0.36-0.123-0.667-0.345-0.897-0.665-0.365-0.506-0.515-1.079-0.547-1.69-0.015-0.28-0.062-0.568-0.020-0.84 0.065-0.416 0.185-0.824 0.298-1.23 0.187-0.673 0.556-1.261 0.925-1.843 0.17-0.267 0.392-0.509 0.625-0.726 0.457-0.425 0.91-0.865 1.417-1.223 0.521-0.368 1.090-0.679 1.668-0.952 0.6-0.284 1.224-0.531 1.859-0.722 0.546-0.164 1.118-0.264 1.685-0.325 0.759-0.082 1.524-0.111 2.287-0.14 0.243-0.009 0.489 0.057 0.735 0.082 0.281 0.028 0.565 0.036 0.843 0.077s0.555 0.109 0.831 0.171c0.23 0.051 0.464 0.096 0.687 0.17 0.451 0.148 0.904 0.295 1.341 0.478 0.435 0.182 0.858 0.396 1.274 0.619 0.258 0.138 0.494 0.317 0.735 0.484 0.199 0.137 0.393 0.281 0.586 0.426 0.566 0.423 1.083 0.899 1.51 1.464 0.331 0.438 0.659 0.88 0.966 1.335 0.141 0.208 0.231 0.452 0.341 0.681 0.080 0.166 0.157 0.334 0.229 0.504 0.272 0.637 0.458 1.297 0.533 1.988 0.022 0.206 0.055 0.411 0.083 0.659 0.001 0.41 0.002 0.779 0.002 1.147-0.066 0.496-0.108 0.997-0.205 1.487-0.084 0.423-0.199 0.846-0.357 1.247-0.172 0.434-0.412 0.842-0.62 1.262-0.353 0.71-0.886 1.288-1.4 1.874-0.352 0.402-0.763 0.761-1.182 1.095-0.444 0.354-0.913 0.684-1.4 0.974-0.44 0.262-0.918 0.461-1.383 0.678-0.436 0.203-0.873 0.409-1.32 0.586-0.458 0.181-0.93 0.327-1.395 0.494-0.258 0.093-0.511 0.196-0.747 0.287l-0.283 1.349c-0.602 0-1.238 0-1.911-0.013-0.439-0.018-0.841-0.024-1.244-0.029zM17.199 26.364c0.223 0.301 0.533 0.562 0.626 0.885 0.188 0.657 0.275 1.34-0.096 1.998-0.299 0.531-0.718 0.9-1.254 1.182-0.309 0.163-0.622 0.23-0.951 0.239-0.341 0.009-0.691 0.012-1.024-0.050-0.449-0.083-0.875-0.247-1.175-0.631-0.208-0.265-0.494-0.495-0.62-0.793-0.165-0.391-0.293-0.828-0.212-1.268 0.060-0.32 0.124-0.666 0.294-0.931 0.198-0.309 0.488-0.575 0.783-0.803 0.491-0.379 1.086-0.521 1.693-0.537 0.723-0.020 1.366 0.236 1.937 0.708z"></path>
</svg>
