<svg xmlns="http://www.w3.org/2000/svg" viewBox="0 0 300 300">
	<path fill="#db7198" d="M160.25 290.25c-9.994 10.058-8.337 9.528-18.455.209-12.323-11.35-25.301-21.985-37.86-33.084-10.625-9.39-20.96-19.108-31.597-28.483-13.62-12.002-25.347-25.727-35.387-40.702-10.24-15.274-18.455-31.81-21.802-50.099-2.12-11.581-3.88-23.419-3.93-35.15-.11-25.733 14.624-44.925 39.099-54.961 14.19-5.82 29.002-6.87 43.982-5.88 13.215.874 24.34 7.502 34.969 14.76 8.576 5.856 16.317 12.667 21.215 21.847 4.12-4.684 7.83-9.896 12.505-14.008 10.028-8.82 20.797-16.943 34.064-20.04 6.81-1.59 14.093-1.646 21.15-1.539 7.857.12 15.992.103 23.494 2.086 24.387 6.446 42.062 18.274 48.143 45.961 2.719 12.38.818 24.996-.957 37.376-2.25 15.691-7.506 30.52-14.925 44.52-6.427 12.129-13.84 23.645-23.272 33.683-9.697 10.323-19.289 20.792-29.614 30.464-10.158 9.516-21.197 18.09-31.814 27.121a889.45 889.45 0 0 0-15.635 13.581c-4.438 3.957-8.753 8.052-13.373 12.337m45.497-201.477c-23.736-4.092-42.111 4.15-55.196 24.592-.686-.98-1.1-1.496-1.432-2.059-7.055-11.98-18.01-19.228-30.9-22.681-9.727-2.607-20.195-1.913-29.972.92-14.199 4.115-25.572 12.434-28.826 27.532-3.203 14.86-.55 29.665 4.552 43.97 6.712 18.82 18.595 34.1 33.028 47.445 16.342 15.109 33.092 29.776 49.687 44.611 2.857 2.554 5.429 2.226 8.294-.448 7.173-6.693 14.678-13.03 21.88-19.692 13.41-12.407 27.487-24.218 39.855-37.598 17.77-19.223 26.62-42.563 26.241-68.969-.32-22.319-14.818-34.859-37.211-37.623z" />
	<path fill="#F2E8B6" d="M206.187 88.843c21.953 2.694 36.45 15.234 36.771 37.553.38 26.406-8.471 49.746-26.24 68.969-12.37 13.38-26.445 25.191-39.856 37.598-7.202 6.662-14.707 12.999-21.88 19.692-2.865 2.674-5.437 3.002-8.294.448-16.595-14.835-33.345-29.502-49.687-44.611-14.433-13.344-26.316-28.625-33.028-47.444-5.102-14.306-7.755-29.111-4.552-43.971 3.254-15.098 14.627-23.417 28.826-27.532 9.777-2.833 20.245-3.527 29.972-.92 12.89 3.453 23.845 10.701 30.9 22.681.332.563.746 1.078 1.432 2.06 13.085-20.443 31.46-28.685 55.636-24.523z" />
</svg>
